<svg width="28" height="28" viewBox="0 0 28 28" fill="none" xmlns="http://www.w3.org/2000/svg">
<path fill-rule="evenodd" clip-rule="evenodd" d="M11.7624 10.0138C11.4917 9.73551 11.0482 9.73551 10.7725 10.0053L7.20911 13.5046C7.07589 13.6311 7 13.8166 7 14.0021C7 14.1876 7.07589 14.3731 7.20911 14.4996L10.7725 17.9989C11.0482 18.2687 11.4917 18.2687 11.7624 17.9904C12.0331 17.7122 12.0288 17.2737 11.7531 17.0039L9.41155 14.702L20.2981 14.702C20.6843 14.702 20.998 14.39 20.998 14.0021C20.998 13.6142 20.6843 13.3022 20.2981 13.3022L9.41155 13.3022L11.7531 11.0003C12.0288 10.7305 12.0331 10.2836 11.7624 10.0138Z" fill="white" fill-opacity="0.85"/>
</svg>
