<svg width="16" height="16" viewBox="0 0 16 16" fill="none" xmlns="http://www.w3.org/2000/svg">
<path fill-rule="evenodd" clip-rule="evenodd" d="M3.79879 14.998L12.1971 14.998C13.3607 14.998 14.2966 14.0578 14.2966 12.8984V7.9994L14.2966 5.46474C14.2966 4.95208 14.1111 4.45628 13.7654 4.07262L12.6187 2.77072L11.7164 1.72937C11.3201 1.26645 10.7383 1 10.1312 1L7.99792 1L3.79879 1C2.6436 1 1.69922 1.94017 1.69922 3.09957L1.69922 12.8984C1.69922 14.0578 2.6436 14.998 3.79879 14.998ZM10.654 2.6434L11.5647 3.69234L12.7198 5.00098C12.8379 5.12915 12.8969 5.29357 12.8969 5.46474L12.8969 7.9994V12.8984C12.8969 13.2846 12.5849 13.5983 12.1971 13.5983L3.79879 13.5983C3.41091 13.5983 3.09893 13.2846 3.09893 12.8984L3.09893 3.09957C3.09893 2.71338 3.41091 2.39971 3.79879 2.39971L7.99792 2.39971L10.1312 2.39971C10.3336 2.39971 10.5275 2.48909 10.654 2.6434ZM5.89835 4.49928C5.51048 4.49928 5.1985 4.81295 5.1985 5.19914C5.1985 5.58616 5.51048 5.89899 5.89835 5.89899H9.39763C9.78551 5.89899 10.0975 5.58616 10.0975 5.19914C10.0975 4.81295 9.78551 4.49928 9.39763 4.49928L5.89835 4.49928ZM5.1985 7.9994C5.1985 7.61237 5.51048 7.29955 5.89835 7.29955L10.0975 7.29955C10.4854 7.29955 10.7973 7.61237 10.7973 7.9994C10.7973 8.38559 10.4854 8.69926 10.0975 8.69926L5.89835 8.69926C5.51048 8.69926 5.1985 8.38559 5.1985 7.9994ZM5.89835 10.099C5.51048 10.099 5.1985 10.4118 5.1985 10.7988C5.1985 11.185 5.51048 11.4987 5.89835 11.4987L10.0975 11.4987C10.4854 11.4987 10.7973 11.185 10.7973 10.7988C10.7973 10.4118 10.4854 10.099 10.0975 10.099L5.89835 10.099Z" fill="#8C8C8C"/>
</svg>
